<svg width="40" height="52" viewBox="0 0 40 52" fill="none" xmlns="http://www.w3.org/2000/svg">
<path d="M31.4393 37.3647C31.6043 37.0588 31.9847 36.9443 32.2896 37.1108C33.3516 37.6912 34.0115 38.807 34.0115 40.0225C34.0115 41.5496 32.9846 42.8713 31.5141 43.2375C31.4636 43.2495 31.4131 43.2555 31.3634 43.2555C31.0817 43.2555 30.8255 43.063 30.7548 42.7756C30.6717 42.437 30.8771 42.0946 31.2134 42.011C32.1224 41.7846 32.7572 40.9672 32.7572 40.0225C32.7572 39.2703 32.3487 38.5798 31.6915 38.2208C31.3873 38.0547 31.2744 37.6709 31.4393 37.3647ZM31.4393 37.3647L31.4393 37.3647L31.4393 37.3647ZM30.6576 42.7995L30.6577 42.7995C30.7395 43.1323 31.0364 43.3555 31.3634 43.3555C31.4212 43.3555 31.4795 43.3485 31.5374 43.3347L31.5374 43.3347L31.5383 43.3345C33.0538 42.9571 34.1115 41.595 34.1115 40.0225C34.1115 38.7706 33.4318 37.6211 32.3376 37.023L32.3375 37.023C31.9836 36.8297 31.5424 36.963 31.3513 37.3172L31.3513 37.3172C31.1604 37.6716 31.2908 38.1159 31.6435 38.3086L31.6435 38.3086C32.2685 38.65 32.6572 39.3067 32.6572 40.0225C32.6572 40.9218 32.0532 41.6988 31.1892 41.9139C30.7989 42.011 30.5616 42.4079 30.6576 42.7995Z" fill="black" stroke="black" stroke-width="0.2"/>
<path d="M7.1574 37.2978L7.15741 37.2978C7.4778 37.0547 7.93391 37.1188 8.17618 37.4417L8.17619 37.4417C8.4179 37.7641 8.35386 38.2224 8.03321 38.4658L8.03319 38.4658C7.54351 38.8374 7.26286 39.4042 7.26286 40.0221C7.26286 40.8437 7.7785 41.5814 8.54492 41.8574L8.54494 41.8574C8.92336 41.9937 9.11957 42.4122 8.98459 42.7921C8.98459 42.7921 8.98458 42.7921 8.98458 42.7921L8.89035 42.7587C8.79871 43.0167 8.55705 43.1775 8.29969 43.1775C8.22936 43.1775 8.15828 43.1659 8.08871 43.1402L7.1574 37.2978ZM7.1574 37.2978C6.30004 37.9485 5.8082 38.9423 5.8082 40.0221C5.8082 41.4593 6.71061 42.7504 8.0545 43.2342L7.1574 37.2978Z" fill="black" stroke="black" stroke-width="0.2"/>
<path d="M9.7472 38.1924L9.7471 38.1925C8.52252 39.5316 7.8707 41.0906 7.8707 42.7018C7.8707 45.0319 9.24378 47.1338 11.4385 48.649C13.6338 50.1645 16.6592 51.1 19.991 51.1C23.3227 51.1 26.3481 50.1645 28.5434 48.649C30.7381 47.1338 32.1112 45.0319 32.1112 42.7018C32.1112 41.0925 31.4605 39.5346 30.2382 38.1967C29.9663 37.8985 29.5062 37.8792 29.2107 38.1534C28.9151 38.4267 28.8962 38.8889 29.1677 39.1862L29.1677 39.1863C30.1452 40.2563 30.6565 41.472 30.6565 42.7018C30.6565 44.5966 29.477 46.328 27.5451 47.5905C25.6141 48.8523 22.9422 49.637 19.9906 49.637C17.0391 49.637 14.3673 48.8523 12.4364 47.5905C10.5045 46.328 9.32499 44.5966 9.32499 42.7018C9.32499 41.4705 9.83782 40.2538 10.8175 39.1829L10.8175 39.1829C11.0892 38.8858 11.0701 38.4237 10.7751 38.1498L10.775 38.1497C10.4796 37.8762 10.0203 37.8947 9.7472 38.1924Z" fill="black" stroke="black" stroke-width="0.2"/>
<path d="M10.6187 16.3981L10.6187 16.3981L10.5873 16.4222C10.2293 16.6976 9.87315 16.9714 9.52651 17.2461C9.52646 17.2461 9.52641 17.2461 9.52636 17.2462L8.35722 18.1689L8.35714 18.1689L8.34477 18.1787C5.65608 20.2965 3.79274 21.7642 2.60507 23.3381C1.40915 24.923 0.9 26.612 0.9 29.1655C0.9 32.4799 3.06123 35.47 6.51832 37.6263C9.97691 39.7836 14.7458 41.1165 19.9998 41.1165C25.254 41.1165 30.0231 39.7835 33.4818 37.626C36.9389 35.4694 39.1002 32.4789 39.1 29.1639C39.1 26.6107 38.5908 24.9217 37.395 23.3368C36.2072 21.7626 34.3435 20.2947 31.6543 18.1766L31.6432 18.1678L31.6431 18.1677L29.8667 16.7654L29.8666 16.7654C26.944 14.464 24.2207 12.315 23.3727 8.89866L23.3725 8.89815L23.2869 8.56065L23.2868 8.56041C23.1617 8.07242 22.9844 7.38049 22.8935 6.72074C22.8481 6.39092 22.8247 6.07239 22.8393 5.7936C22.854 5.51305 22.9069 5.28286 23.0055 5.12197C23.1994 4.80595 23.6157 4.60624 23.9712 4.65751C24.137 4.6818 24.3039 4.78675 24.3929 4.91994L24.476 4.86443L24.3925 4.91948C24.4066 4.94086 24.4235 4.97025 24.4343 5.00178C24.4454 5.03389 24.4476 5.06057 24.4426 5.08102L24.4425 5.08119C24.3461 5.47271 24.5825 5.86958 24.9724 5.96751L24.9724 5.96752C25.3663 6.06635 25.7575 5.82532 25.854 5.43418C25.9645 4.98612 25.8722 4.51386 25.6007 4.10577L25.6007 4.1057C25.2826 3.62843 24.7525 3.29413 24.1816 3.21018C23.2547 3.07197 22.2639 3.54456 21.7677 4.35448C21.3873 4.97504 21.336 5.79645 21.4158 6.61363C21.4956 7.43046 21.7085 8.26241 21.8766 8.91933L21.8784 8.92638L21.8784 8.92645L21.9621 9.25422C21.9621 9.25432 21.9621 9.25441 21.9621 9.25451C22.9331 13.1644 25.8771 15.4825 28.9595 17.9095L28.9707 17.9184L28.9708 17.9184L30.7472 19.3207L30.7473 19.3208C33.4161 21.4233 35.1378 22.7807 36.1964 24.1669C37.2476 25.5435 37.6461 26.9514 37.6461 29.1655C37.6461 32.0352 35.6889 34.655 32.4913 36.5627C29.2959 38.4692 24.8778 39.6531 20.0002 39.6531C15.1226 39.6531 10.7045 38.4692 7.50923 36.5627C4.31177 34.655 2.35466 32.0352 2.35466 29.1655C2.35466 26.9512 2.753 25.5432 3.80417 24.1666C4.86272 22.7803 6.58442 21.423 9.25345 19.3204L9.2535 19.3204L10.4251 18.396L10.4253 18.3959C10.7766 18.1177 11.137 17.8405 11.5014 17.5606L11.5015 17.5605L11.506 17.5571C13.3417 16.146 15.2577 14.6732 16.4792 12.723L16.4034 12.6756L16.4792 12.723C17.3605 11.3158 17.6628 9.7609 17.9513 8.2771L17.9519 8.27438C18.1325 7.34623 18.3014 6.4787 18.5971 5.6624C19.4298 3.36519 21.5611 2.11358 24.172 2.40615L24.1723 2.40618C24.5695 2.44946 24.9307 2.1608 24.9749 1.75958C25.0195 1.35875 24.7326 0.996522 24.3326 0.951916C21.0317 0.583704 18.306 2.19465 17.2311 5.16145C16.8955 6.08796 16.7064 7.06071 16.5252 7.99325C16.2447 9.43327 15.9832 10.7711 15.2492 11.943L15.3282 11.9925L15.2492 11.943C14.1697 13.6666 12.3745 15.0484 10.6187 16.3981Z" fill="black" stroke="black" stroke-width="0.2"/>
<path d="M33.2776 20.2367C33.0105 20.4586 32.972 20.8563 33.1923 21.1257C33.446 21.4353 33.5743 21.7419 33.5743 22.0372C33.5743 23.1386 31.6249 24.6582 27.2684 25.5697C26.9291 25.6405 26.7114 25.975 26.7818 26.3163L33.2776 20.2367ZM33.2776 20.2367C33.5455 20.0148 33.9401 20.054 34.1604 20.3226L33.2776 20.2367ZM26.6838 26.3365L26.6838 26.3366C26.7553 26.6818 27.0576 26.9195 27.3952 26.9195C27.4446 26.9195 27.494 26.9143 27.5423 26.9049L27.5423 26.9049L27.5437 26.9046C29.8713 26.4176 31.711 25.7367 32.9715 24.9138C34.2309 24.0917 34.9285 23.1156 34.9285 22.0376C34.9285 21.4147 34.6931 20.8155 34.2378 20.2593L34.2378 20.2592C33.9825 19.948 33.5246 19.9023 33.2138 20.1597L33.2137 20.1598C32.9044 20.4168 32.8598 20.8771 33.1149 21.189L33.115 21.189C33.3591 21.4871 33.4743 21.772 33.4743 22.0372C33.4743 22.2826 33.3655 22.5626 33.1237 22.8629C32.8822 23.163 32.5123 23.4776 32.0028 23.7894C30.9839 24.4129 29.4194 25.0175 27.2479 25.4718C26.8541 25.5541 26.6025 25.9419 26.6838 26.3365Z" fill="black" stroke="black" stroke-width="0.2"/>
<path d="M6.72108 20.2374L6.78498 20.1605C6.47508 19.9031 6.01669 19.9474 5.76091 20.2596L5.76086 20.2596C5.30636 20.8152 5.0709 21.4136 5.0709 22.0372C5.0709 23.115 5.76822 24.0909 7.02716 24.9129C8.28718 25.7357 10.1263 26.4164 12.4532 26.9035L12.4537 26.9036C12.5026 26.9135 12.5527 26.9188 12.602 26.9188C12.9397 26.9188 13.2416 26.6809 13.3134 26.3355L13.3134 26.3353C13.3947 25.9407 13.1431 25.5529 12.7493 25.4707C10.5788 25.0163 9.01477 24.412 7.99619 23.7886C7.48686 23.4769 7.11709 23.1624 6.87565 22.8624C6.63395 22.5622 6.52518 22.2822 6.52518 22.0368C6.52518 21.7712 6.64035 21.4867 6.88375 21.1894L6.88378 21.1893C7.13837 20.878 7.09489 20.4172 6.78486 20.1604L6.72108 20.2374ZM6.72108 20.2374C6.45399 20.0156 6.05896 20.0536 5.83825 20.3229L12.4737 26.8056C12.5163 26.8142 12.5597 26.8188 12.602 26.8188C12.8926 26.8188 13.1534 26.6139 13.2155 26.3152C13.2858 25.9739 13.0681 25.6394 12.7288 25.5686C8.37413 24.657 6.42518 23.1382 6.42518 22.0368C6.42518 21.7411 6.55349 21.4349 6.80637 21.126C7.02633 20.8571 6.98854 20.4589 6.72108 20.2374Z" fill="black" stroke="black" stroke-width="0.2"/>
<path d="M7.9707 42.6014H7.8707V42.7014C7.8707 43.4516 8.27986 44.1054 8.96361 44.6594C9.64676 45.2129 10.6133 45.6752 11.7544 46.0459C14.0377 46.7877 17.0456 47.1712 19.9584 47.1712C22.871 47.1712 25.8789 46.7876 28.1621 46.0458C29.3032 45.675 30.2697 45.2128 30.9528 44.6593C31.6366 44.1053 32.0457 43.4515 32.0457 42.7014V42.6014H31.9457H30.6911H30.5911V42.7014C30.5911 42.9744 30.3721 43.3046 29.8906 43.6529C29.4151 43.9968 28.7073 44.3406 27.7869 44.646C25.9471 45.2565 23.2749 45.7078 19.9584 45.7078C16.6417 45.7078 13.9694 45.2565 12.1296 44.646C11.2092 44.3406 10.5014 43.9968 10.0259 43.6529C9.5443 43.3046 9.32536 42.9744 9.32536 42.7014V42.6014H9.22536H7.9707Z" fill="black" stroke="black" stroke-width="0.2"/>
<path d="M11.3866 34.1184L11.3866 34.1184C11.1241 33.8131 11.1574 33.3515 11.4603 33.0871L11.4605 33.0869L11.4605 33.0869C11.7645 32.8227 12.2237 32.8559 12.4865 33.1612L12.4866 33.1612C14.008 34.9308 16.8841 36.0419 20.0001 36.0419C23.1164 36.0419 25.9925 34.9308 27.5143 33.1612L27.5144 33.1611C27.7776 32.856 28.2363 32.8227 28.5404 33.0869L28.5405 33.087C28.844 33.3516 28.8762 33.8132 28.6143 34.1184L28.6142 34.1185C26.7856 36.2449 23.5622 37.5049 20.0001 37.5049C16.4379 37.5049 13.2149 36.2449 11.3866 34.1184ZM11.3866 34.1184L11.4609 34.0546L11.3866 34.1184Z" fill="black" stroke="black" stroke-width="0.2"/>
<path d="M17.145 21.2347L17.1783 21.2347L22.8187 21.232L22.8519 21.232L22.8786 21.2519C23.3835 21.6293 23.8124 22.1038 24.1389 22.6471L24.1389 22.6472C24.5789 23.381 24.8321 24.241 24.8321 25.1602C24.8321 27.8463 22.6696 30.0252 19.9997 30.0252C17.3305 30.0252 15.1676 27.8463 15.1676 25.1602C15.1676 24.2102 15.4383 23.3241 15.9062 22.5749L17.145 21.2347ZM17.145 21.2347L17.1184 21.2547M17.145 21.2347L17.1184 21.2547M17.1184 21.2547C16.638 21.615 16.2259 22.0626 15.9062 22.5749L17.1184 21.2547Z" fill="black" stroke="black" stroke-width="0.2"/>
<path d="M13.6677 21.7696L13.6676 21.7696C13.2685 21.722 12.9843 21.3581 13.031 20.9578L13.6677 21.7696ZM13.6677 21.7696C15.7362 22.0157 17.8668 22.1402 19.9995 22.1402C22.1337 22.1402 24.2647 22.0157 26.3318 21.7693C26.7311 21.722 27.0151 21.3575 26.9684 20.957L26.9684 20.9569C26.9213 20.5567 26.5672 20.27 26.1612 20.3163L26.1607 20.3163M13.6677 21.7696L26.1607 20.3163M26.1607 20.3163C22.1406 20.7953 17.8631 20.7957 13.8389 20.3167M26.1607 20.3163L13.8389 20.3167M13.8389 20.3167C13.4337 20.2669 13.0776 20.5578 13.031 20.9578L13.8389 20.3167ZM26.1725 20.4155L26.1726 20.4156L26.1725 20.4155Z" fill="black" stroke="black" stroke-width="0.2"/>
<path d="M11.8043 25.1602C11.8043 29.7093 15.4796 33.4112 19.999 33.4112C24.5184 33.4112 28.194 29.709 28.194 25.1602C28.194 20.6115 24.5184 16.9093 19.999 16.9093C15.4796 16.9093 11.8043 20.6111 11.8043 25.1602ZM13.259 25.1602C13.259 21.4167 16.283 18.3719 19.999 18.3719C23.7149 18.3719 26.7394 21.4168 26.7394 25.1602C26.7394 28.9037 23.7149 31.9478 19.999 31.9478C16.283 31.9478 13.259 28.9037 13.259 25.1602Z" fill="black" stroke="black" stroke-width="0.2"/>
</svg>
